<svg width="19" height="20" viewBox="0 0 19 20" fill="none" xmlns="http://www.w3.org/2000/svg">
<path d="M4.425 7.47506L8.15 1.40006C8.25 1.23339 8.375 1.11239 8.525 1.03706C8.675 0.961724 8.83333 0.924391 9 0.925058C9.16667 0.925058 9.325 0.962724 9.475 1.03806C9.625 1.11339 9.75 1.23406 9.85 1.40006L13.575 7.47506C13.675 7.64172 13.725 7.81672 13.725 8.00006C13.725 8.18339 13.6833 8.35006 13.6 8.50006C13.5167 8.65006 13.4 8.77106 13.25 8.86306C13.1 8.95506 12.925 9.00072 12.725 9.00006H5.275C5.075 9.00006 4.9 8.95439 4.75 8.86306C4.6 8.77172 4.48333 8.65072 4.4 8.50006C4.31667 8.35006 4.275 8.18339 4.275 8.00006C4.275 7.81672 4.325 7.64172 4.425 7.47506ZM14.5 20.0001C13.25 20.0001 12.1877 19.5627 11.313 18.6881C10.4383 17.8134 10.0007 16.7507 10 15.5001C10 14.2501 10.4377 13.1877 11.313 12.3131C12.1883 11.4384 13.2507 11.0007 14.5 11.0001C15.75 11.0001 16.8127 11.4377 17.688 12.3131C18.5633 13.1884 19.0007 14.2507 19 15.5001C19 16.7501 18.5627 17.8127 17.688 18.6881C16.8133 19.5634 15.7507 20.0007 14.5 20.0001ZM0 18.5001V12.5001C0 12.2167 0.0960001 11.9794 0.288 11.7881C0.48 11.5967 0.717333 11.5007 1 11.5001H7C7.28333 11.5001 7.521 11.5961 7.713 11.7881C7.905 11.9801 8.00067 12.2174 8 12.5001V18.5001C8 18.7834 7.904 19.0211 7.712 19.2131C7.52 19.4051 7.28267 19.5007 7 19.5001H1C0.716667 19.5001 0.479333 19.4041 0.288 19.2121C0.0966668 19.0201 0.000666667 18.7827 0 18.5001Z" fill="white"/>
</svg>
