<svg width="32" height="33" viewBox="0 0 32 33" fill="none" xmlns="http://www.w3.org/2000/svg">
<path d="M7.375 11.7917L13.5833 1.66668C13.75 1.3889 13.9583 1.18724 14.2083 1.06168C14.4583 0.936126 14.7222 0.873904 15 0.875015C15.2778 0.875015 15.5417 0.937793 15.7917 1.06335C16.0417 1.1889 16.25 1.39001 16.4167 1.66668L22.625 11.7917C22.7917 12.0695 22.875 12.3611 22.875 12.6667C22.875 12.9722 22.8056 13.25 22.6667 13.5C22.5278 13.75 22.3333 13.9517 22.0833 14.105C21.8333 14.2583 21.5417 14.3345 21.2083 14.3333H8.79167C8.45833 14.3333 8.16667 14.2572 7.91667 14.105C7.66667 13.9528 7.47222 13.7511 7.33333 13.5C7.19444 13.25 7.125 12.9722 7.125 12.6667C7.125 12.3611 7.20833 12.0695 7.375 11.7917ZM24.1667 32.6667C22.0833 32.6667 20.3128 31.9378 18.855 30.48C17.3972 29.0222 16.6678 27.2511 16.6667 25.1667C16.6667 23.0833 17.3961 21.3128 18.855 19.855C20.3139 18.3972 22.0844 17.6678 24.1667 17.6667C26.25 17.6667 28.0211 18.3961 29.48 19.855C30.9389 21.3139 31.6678 23.0845 31.6667 25.1667C31.6667 27.25 30.9378 29.0211 29.48 30.48C28.0222 31.9389 26.2511 32.6678 24.1667 32.6667ZM0 30.1667V20.1667C0 19.6945 0.16 19.2989 0.48 18.98C0.8 18.6611 1.19556 18.5011 1.66667 18.5H11.6667C12.1389 18.5 12.535 18.66 12.855 18.98C13.175 19.3 13.3344 19.6956 13.3333 20.1667V30.1667C13.3333 30.6389 13.1733 31.035 12.8533 31.355C12.5333 31.675 12.1378 31.8345 11.6667 31.8333H1.66667C1.19444 31.8333 0.798889 31.6733 0.48 31.3533C0.161111 31.0333 0.00111111 30.6378 0 30.1667Z" fill="#023B5B"/>
</svg>
