<svg width="34" height="34" viewBox="0 0 34 34" fill="none" xmlns="http://www.w3.org/2000/svg">
<path d="M27.3333 27C25.4833 27 24 28.4834 24 30.3334C24 31.2174 24.3512 32.0653 24.9763 32.6904C25.6014 33.3155 26.4493 33.6667 27.3333 33.6667C28.2174 33.6667 29.0652 33.3155 29.6904 32.6904C30.3155 32.0653 30.6667 31.2174 30.6667 30.3334C30.6667 29.4493 30.3155 28.6015 29.6904 27.9764C29.0652 27.3512 28.2174 27 27.3333 27ZM0.666664 0.333374V3.66671H4L10 16.3167L7.73333 20.4C7.48333 20.8667 7.33333 21.4167 7.33333 22C7.33333 22.8841 7.68452 23.7319 8.30964 24.3571C8.93476 24.9822 9.78261 25.3334 10.6667 25.3334H30.6667V22H11.3667C11.2562 22 11.1502 21.9561 11.072 21.878C10.9939 21.7999 10.95 21.6939 10.95 21.5834C10.95 21.5 10.9667 21.4334 11 21.3834L12.5 18.6667H24.9167C26.1667 18.6667 27.2667 17.9667 27.8333 16.95L33.8 6.16671C33.9167 5.90004 34 5.61671 34 5.33337C34 4.89135 33.8244 4.46742 33.5118 4.15486C33.1993 3.8423 32.7754 3.66671 32.3333 3.66671H7.68333L6.11666 0.333374M10.6667 27C8.81666 27 7.33333 28.4834 7.33333 30.3334C7.33333 31.2174 7.68452 32.0653 8.30964 32.6904C8.93476 33.3155 9.78261 33.6667 10.6667 33.6667C11.5507 33.6667 12.3986 33.3155 13.0237 32.6904C13.6488 32.0653 14 31.2174 14 30.3334C14 29.4493 13.6488 28.6015 13.0237 27.9764C12.3986 27.3512 11.5507 27 10.6667 27Z" fill="#3C335D"/>
</svg>
