<svg width="28" height="28" viewBox="0 0 28 28" fill="none" xmlns="http://www.w3.org/2000/svg">
<path d="M14 0.666626C15.7681 0.666626 17.4638 1.369 18.7141 2.61925C19.9643 3.86949 20.6667 5.56518 20.6667 7.33329C20.6667 9.1014 19.9643 10.7971 18.7141 12.0473C17.4638 13.2976 15.7681 14 14 14C12.2319 14 10.5362 13.2976 9.28597 12.0473C8.03573 10.7971 7.33335 9.1014 7.33335 7.33329C7.33335 5.56518 8.03573 3.86949 9.28597 2.61925C10.5362 1.369 12.2319 0.666626 14 0.666626ZM14 17.3333C21.3667 17.3333 27.3334 20.3166 27.3334 24V27.3333H0.666687V24C0.666687 20.3166 6.63335 17.3333 14 17.3333Z" fill="#2F6967"/>
</svg>
