<svg width="32" height="35" viewBox="0 0 32 35" fill="none" xmlns="http://www.w3.org/2000/svg">
<path fill-rule="evenodd" clip-rule="evenodd" d="M9.75 8.02504V6.33337C9.75 4.67577 10.4085 3.08606 11.5806 1.91396C12.7527 0.741854 14.3424 0.083374 16 0.083374C17.6576 0.083374 19.2473 0.741854 20.4194 1.91396C21.5915 3.08606 22.25 4.67577 22.25 6.33337V8.02504C24.395 8.09004 25.7083 8.32004 26.71 9.15171C28.0983 10.305 28.465 12.255 29.1967 16.1567L30.4467 22.8234C31.475 28.31 31.9883 31.0534 30.49 32.86C28.99 34.6667 26.1983 34.6667 20.6167 34.6667H11.3833C5.8 34.6667 3.01 34.6667 1.51 32.86C0.0100017 31.0534 0.526668 28.31 1.55333 22.8234L2.80333 16.1567C3.53667 12.2567 3.90167 10.305 5.29 9.15171C6.29167 8.32004 7.605 8.09004 9.75 8.02504ZM12.25 6.33337C12.25 5.33881 12.6451 4.38498 13.3484 3.68172C14.0516 2.97846 15.0054 2.58337 16 2.58337C16.9946 2.58337 17.9484 2.97846 18.6517 3.68172C19.3549 4.38498 19.75 5.33881 19.75 6.33337V8.00004H12.25V6.33337ZM22.2333 16.1284C22.2064 15.9664 22.1479 15.8113 22.061 15.672C21.9741 15.5327 21.8607 15.4118 21.7271 15.3163C21.5936 15.2208 21.4425 15.1526 21.2826 15.1155C21.1226 15.0784 20.957 15.0731 20.795 15.1C20.633 15.127 20.478 15.1855 20.3386 15.2724C20.1993 15.3592 20.0784 15.4727 19.9829 15.6062C19.8875 15.7398 19.8192 15.8909 19.7821 16.0508C19.745 16.2107 19.7397 16.3764 19.7667 16.5384L21.4333 26.5384C21.4603 26.7003 21.5188 26.8554 21.6057 26.9947C21.6925 27.1341 21.806 27.2549 21.9395 27.3504C22.0731 27.4459 22.2241 27.5142 22.3841 27.5513C22.544 27.5884 22.7097 27.5936 22.8717 27.5667C23.0336 27.5398 23.1887 27.4812 23.328 27.3944C23.4674 27.3075 23.5882 27.1941 23.6837 27.0605C23.7792 26.927 23.8475 26.7759 23.8846 26.616C23.9217 26.456 23.9269 26.2903 23.9 26.1284L22.2333 16.1284ZM11.205 15.1C11.043 15.0731 10.8773 15.0783 10.7174 15.1154C10.5574 15.1525 10.4064 15.2207 10.2728 15.3162C10.1392 15.4117 10.0258 15.5326 9.93894 15.672C9.8521 15.8113 9.79356 15.9664 9.76667 16.1284L8.1 26.1284C8.07308 26.2903 8.07832 26.456 8.11543 26.616C8.15254 26.7759 8.22079 26.927 8.31628 27.0605C8.41177 27.1941 8.53263 27.3075 8.67196 27.3944C8.8113 27.4812 8.96637 27.5398 9.12833 27.5667C9.2903 27.5936 9.45598 27.5884 9.61592 27.5513C9.77585 27.5142 9.92691 27.4459 10.0605 27.3504C10.194 27.2549 10.3075 27.1341 10.3943 26.9947C10.4812 26.8554 10.5397 26.7003 10.5667 26.5384L12.2333 16.5384C12.2603 16.3764 12.2551 16.2107 12.218 16.0508C12.1809 15.8908 12.1126 15.7397 12.0171 15.6062C11.9216 15.4726 11.8008 15.3592 11.6614 15.2723C11.5221 15.1855 11.367 15.1269 11.205 15.1Z" fill="#04649B"/>
</svg>
