<svg width="30" height="22" viewBox="0 0 30 22" fill="none" xmlns="http://www.w3.org/2000/svg">
<path d="M2.50001 0.583374H12.9167C13.4692 0.583374 13.9991 0.802867 14.3898 1.19357C14.7805 1.58427 15 2.11417 15 2.66671C15 3.21924 14.7805 3.74915 14.3898 4.13985C13.9991 4.53055 13.4692 4.75004 12.9167 4.75004H2.50001C1.94747 4.75004 1.41757 4.53055 1.02687 4.13985C0.636165 3.74915 0.416672 3.21924 0.416672 2.66671C0.416672 2.11417 0.636165 1.58427 1.02687 1.19357C1.41757 0.802867 1.94747 0.583374 2.50001 0.583374ZM17.0833 17.25H27.5C28.0525 17.25 28.5824 17.4695 28.9731 17.8602C29.3638 18.2509 29.5833 18.7808 29.5833 19.3334C29.5833 19.8859 29.3638 20.4158 28.9731 20.8065C28.5824 21.1972 28.0525 21.4167 27.5 21.4167H17.0833C16.5308 21.4167 16.0009 21.1972 15.6102 20.8065C15.2195 20.4158 15 19.8859 15 19.3334C15 18.7808 15.2195 18.2509 15.6102 17.8602C16.0009 17.4695 16.5308 17.25 17.0833 17.25ZM2.50001 8.91671H27.5C28.0525 8.91671 28.5824 9.1362 28.9731 9.5269C29.3638 9.9176 29.5833 10.4475 29.5833 11C29.5833 11.5526 29.3638 12.0825 28.9731 12.4732C28.5824 12.8639 28.0525 13.0834 27.5 13.0834H2.50001C1.94747 13.0834 1.41757 12.8639 1.02687 12.4732C0.636165 12.0825 0.416672 11.5526 0.416672 11C0.416672 10.4475 0.636165 9.9176 1.02687 9.5269C1.41757 9.1362 1.94747 8.91671 2.50001 8.91671Z" fill="white"/>
</svg>
